<svg xmlns="http://www.w3.org/2000/svg" xmlns:xlink="http://www.w3.org/1999/xlink" width="445" zoomAndPan="magnify" viewBox="0 0 333.75 374.999991" height="500" preserveAspectRatio="xMidYMid meet" version="1.0"><defs><clipPath id="23118f343a"><path d="M 0 0.523438 L 333.5 0.523438 L 333.5 374.492188 L 0 374.492188 Z M 0 0.523438 " clip-rule="nonzero"/></clipPath><clipPath id="31ed057143"><path d="M 188.644531 25.027344 L 305.351562 92.414062 C 307.714844 90.769531 310.601562 89.816406 313.695312 89.816406 C 315.664062 89.816406 317.574219 90.210938 319.304688 90.941406 C 321.113281 91.683594 322.722656 92.773438 324.074219 94.125 C 325.410156 95.460938 326.5 97.085938 327.257812 98.890625 C 327.972656 100.636719 328.382812 102.53125 328.382812 104.5 C 328.382812 106.46875 327.988281 108.378906 327.257812 110.109375 C 326.511719 111.917969 325.421875 113.527344 324.074219 114.878906 C 323.082031 115.867188 321.945312 116.722656 320.695312 117.402344 L 320.679688 117.390625 C 320.457031 117.515625 320.222656 117.628906 320 117.738281 L 320 252.4375 C 320.78125 252.773438 321.574219 253.167969 322.351562 253.628906 C 324.953125 255.125 327.144531 257.09375 328.878906 259.347656 C 330.675781 261.6875 331.972656 264.339844 332.71875 267.136719 C 335.875 278.902344 328.855469 291.234375 316.964844 294.40625 C 314.179688 295.148438 311.234375 295.359375 308.296875 294.960938 C 305.859375 294.640625 303.433594 293.910156 301.117188 292.734375 L 301.03125 292.734375 L 300.050781 292.175781 C 299.285156 291.730469 298.539062 291.234375 297.824219 290.703125 L 184.480469 356.132812 C 184.507812 356.480469 184.507812 356.8125 184.507812 357.160156 C 184.507812 359.539062 184.023438 361.816406 183.15625 363.921875 L 183.15625 363.933594 C 182.253906 366.113281 180.941406 368.058594 179.320312 369.679688 C 177.707031 371.289062 175.753906 372.601562 173.574219 373.503906 C 171.46875 374.371094 169.191406 374.855469 166.800781 374.855469 C 164.421875 374.855469 162.132812 374.371094 160.027344 373.503906 C 157.835938 372.601562 155.890625 371.289062 154.28125 369.679688 C 152.671875 368.070312 151.359375 366.113281 150.453125 363.933594 C 149.585938 361.839844 149.105469 359.550781 149.105469 357.160156 C 149.105469 356.886719 149.117188 356.617188 149.128906 356.332031 L 35.765625 290.875 C 35.007812 291.445312 34.214844 291.976562 33.398438 292.449219 L 33.386719 292.460938 L 33.375 292.460938 L 33.363281 292.449219 C 30.75 293.945312 27.964844 294.863281 25.152344 295.234375 C 22.21875 295.617188 19.269531 295.417969 16.496094 294.675781 C 13.699219 293.933594 11.035156 292.632812 8.707031 290.839844 C 6.464844 289.117188 4.496094 286.914062 2.988281 284.289062 L 2.960938 284.238281 L 2.949219 284.25 C 1.464844 281.664062 0.558594 278.875 0.1875 276.054688 C -0.195312 273.117188 0.015625 270.183594 0.757812 267.410156 C 1.5 264.609375 2.800781 261.960938 4.597656 259.621094 C 6.316406 257.378906 8.523438 255.410156 11.148438 253.898438 L 12.125 253.34375 L 12.175781 253.34375 C 12.558594 253.144531 12.941406 252.960938 13.300781 252.796875 L 13.300781 118.035156 C 12.980469 117.898438 12.671875 117.761719 12.359375 117.601562 C 10.914062 116.882812 9.625 115.941406 8.546875 114.867188 C 7.210938 113.527344 6.132812 111.917969 5.378906 110.097656 C 4.660156 108.351562 4.25 106.457031 4.25 104.488281 C 4.25 102.53125 4.644531 100.636719 5.378906 98.890625 L 5.378906 98.878906 C 6.121094 97.085938 7.210938 95.460938 8.558594 94.125 C 11.210938 91.472656 14.886719 89.828125 18.9375 89.828125 C 20.90625 89.828125 22.8125 90.222656 24.546875 90.953125 C 25.636719 91.398438 26.652344 91.980469 27.578125 92.652344 L 144.335938 25.238281 C 144.25 24.445312 144.199219 23.628906 144.199219 22.8125 C 144.199219 19.828125 144.808594 16.941406 145.898438 14.304688 L 145.898438 14.292969 C 147.867188 9.523438 150.15625 7.542969 153.910156 4.4375 C 155.171875 3.570312 156.535156 2.839844 157.957031 2.242188 C 160.597656 1.152344 163.480469 0.546875 166.476562 0.546875 C 169.460938 0.546875 172.347656 1.152344 174.984375 2.242188 L 174.996094 2.242188 C 177.734375 3.371094 180.183594 5.03125 182.230469 7.074219 C 184.273438 9.117188 185.929688 11.566406 187.058594 14.304688 L 187.058594 14.316406 C 188.148438 16.953125 188.753906 19.828125 188.753906 22.824219 C 188.753906 23.566406 188.71875 24.308594 188.644531 25.054688 Z M 9.871094 275.667969 Z M 35.097656 273.9375 C 35.851562 259.015625 14.402344 255.347656 10.167969 269.6875 C 9.921875 270.652344 9.773438 271.65625 9.722656 272.660156 C 9.675781 273.664062 9.722656 274.679688 9.871094 275.679688 C 12.65625 290.34375 34.351562 288.855469 35.097656 273.949219 Z M 154.058594 22.082031 C 154.007812 23.085938 154.058594 24.101562 154.207031 25.101562 C 154.8125 28.261719 156.535156 30.949219 158.925781 32.792969 C 161.3125 34.636719 164.359375 35.640625 167.578125 35.429688 C 170.800781 35.207031 173.683594 33.808594 175.800781 31.652344 C 177.917969 29.5 179.28125 26.589844 179.441406 23.367188 C 179.601562 20.148438 178.550781 17.117188 176.65625 14.761719 C 174.761719 12.398438 172.039062 10.714844 168.867188 10.167969 C 165.683594 9.625 162.550781 10.316406 159.988281 11.914062 C 157.425781 13.511719 155.433594 16.027344 154.515625 19.109375 C 154.269531 20.074219 154.121094 21.078125 154.070312 22.082031 Z M 298.601562 272.324219 C 298.554688 273.328125 298.601562 274.34375 298.75 275.347656 C 299.359375 278.503906 301.078125 281.191406 303.46875 283.035156 C 305.859375 284.882812 308.90625 285.886719 312.125 285.675781 C 315.34375 285.453125 318.230469 284.050781 320.347656 281.898438 C 322.464844 279.742188 323.828125 276.832031 323.988281 273.613281 C 324.148438 270.394531 323.09375 267.359375 321.199219 265.007812 C 319.304688 262.640625 316.582031 260.957031 313.414062 260.414062 C 310.230469 259.867188 307.097656 260.5625 304.535156 262.160156 C 301.96875 263.757812 299.976562 266.269531 299.0625 269.355469 C 298.8125 270.320312 298.664062 271.324219 298.613281 272.324219 Z M 33.261719 101.332031 C 33.484375 102.359375 33.609375 103.410156 33.609375 104.488281 C 33.609375 106.457031 33.214844 108.363281 32.484375 110.097656 C 31.738281 111.90625 30.652344 113.515625 29.300781 114.867188 C 28.0625 116.105469 26.601562 117.121094 24.964844 117.863281 C 24.558594 118.046875 24.148438 118.210938 23.714844 118.359375 L 23.714844 250.964844 C 24.558594 251.015625 25.375 251.125 26.191406 251.261719 L 149.660156 37.410156 C 149.03125 36.691406 148.449219 35.925781 147.929688 35.144531 L 33.25 101.355469 Z M 147.480469 191.578125 L 147.816406 191.75 L 147.828125 191.75 C 148.558594 192.132812 149.253906 192.582031 149.898438 193.074219 L 225.433594 149.464844 C 225.257812 148.570312 225.171875 147.667969 225.171875 146.777344 C 225.171875 144.820312 225.570312 142.925781 226.300781 141.179688 L 226.300781 141.167969 C 226.96875 139.542969 227.910156 138.082031 229.074219 136.832031 L 175.097656 43.34375 C 174.414062 43.628906 173.722656 43.886719 173.015625 44.097656 L 173.003906 44.097656 C 171.429688 44.582031 169.808594 44.890625 168.148438 45.027344 L 147.496094 191.589844 Z M 155.359375 201.890625 C 155.542969 202.820312 155.628906 203.761719 155.628906 204.714844 L 155.628906 205.085938 L 292.769531 260.425781 C 293.699219 259.039062 294.75 257.800781 295.902344 256.710938 C 296.421875 256.226562 296.957031 255.757812 297.511719 255.324219 L 243.101562 161.078125 C 242.0625 161.3125 240.972656 161.4375 239.871094 161.4375 C 237.902344 161.4375 235.996094 161.042969 234.261719 160.3125 C 233.011719 159.789062 231.859375 159.121094 230.832031 158.316406 L 155.382812 201.878906 Z M 151.703125 214.695312 C 151.582031 214.832031 151.457031 214.96875 151.332031 215.09375 C 148.683594 217.742188 145.003906 219.390625 140.957031 219.390625 C 138.988281 219.390625 137.082031 218.992188 135.347656 218.261719 C 133.847656 217.644531 132.488281 216.800781 131.308594 215.773438 L 43.503906 266.46875 C 43.691406 267.050781 43.851562 267.632812 43.988281 268.226562 L 43.988281 268.238281 C 44.097656 268.734375 44.195312 269.21875 44.273438 269.714844 L 288.015625 269.714844 L 151.703125 214.707031 Z M 126.40625 206.636719 C 126.320312 205.992188 126.269531 205.347656 126.269531 204.714844 C 126.269531 202.757812 126.667969 200.863281 127.398438 199.117188 L 127.398438 199.105469 C 128.140625 197.3125 129.230469 195.6875 130.578125 194.351562 C 131.890625 193.039062 133.464844 191.972656 135.222656 191.230469 C 135.84375 190.96875 136.472656 190.746094 137.128906 190.574219 L 157.773438 44.074219 L 35.738281 255.449219 C 36.097656 255.71875 36.433594 255.992188 36.78125 256.289062 C 37.261719 256.699219 37.722656 257.144531 38.179688 257.601562 L 126.417969 206.660156 Z M 239.847656 132.101562 C 241.816406 132.101562 243.722656 132.5 245.457031 133.230469 C 247.261719 133.972656 248.871094 135.0625 250.222656 136.410156 C 251.558594 137.75 252.648438 139.371094 253.40625 141.179688 C 254.125 142.925781 254.53125 144.820312 254.53125 146.789062 C 254.53125 148.757812 254.136719 150.664062 253.40625 152.398438 C 252.960938 153.464844 252.402344 154.453125 251.746094 155.371094 L 306.972656 251.027344 C 307.828125 250.867188 308.695312 250.742188 309.574219 250.679688 L 309.574219 118.566406 C 309.066406 118.417969 308.558594 118.234375 308.074219 118.035156 C 306.253906 117.28125 304.644531 116.191406 303.308594 114.867188 C 301.96875 113.527344 300.894531 111.917969 300.136719 110.097656 C 299.417969 108.351562 299.011719 106.457031 299.011719 104.488281 C 299.011719 103.300781 299.160156 102.125 299.445312 100.984375 L 185.113281 34.972656 L 183.542969 37.226562 L 238.359375 132.175781 C 238.855469 132.128906 239.351562 132.101562 239.847656 132.101562 Z M 43.429688 280.113281 C 43.144531 280.980469 42.796875 281.847656 42.390625 282.703125 L 152.609375 346.339844 L 154.316406 344.628906 C 157.523438 341.421875 161.945312 339.441406 166.835938 339.441406 C 169.203125 339.441406 171.492188 339.921875 173.597656 340.789062 L 173.609375 340.789062 C 175.789062 341.695312 177.734375 343.007812 179.355469 344.628906 C 179.863281 345.136719 180.359375 345.695312 180.804688 346.277344 L 291.160156 282.566406 C 290.777344 281.761719 290.429688 280.945312 290.144531 280.113281 Z M 43.429688 280.113281 " clip-rule="nonzero"/></clipPath></defs><g clip-path="url(#23118f343a)"><g clip-path="url(#31ed057143)"><path fill="#737373" d="M 0 0.546875 L 0 374.492188 L 333.5 374.492188 L 333.5 0.546875 Z M 0 0.546875 " fill-opacity="1" fill-rule="nonzero"/></g></g></svg>