<svg xmlns="http://www.w3.org/2000/svg" xmlns:xlink="http://www.w3.org/1999/xlink" width="445" zoomAndPan="magnify" viewBox="0 0 333.75 374.999991" height="500" preserveAspectRatio="xMidYMid meet" version="1.0"><defs><clipPath id="ff559e2f83"><path d="M 0 0.523438 L 333.5 0.523438 L 333.5 374.492188 L 0 374.492188 Z M 0 0.523438 " clip-rule="nonzero"/></clipPath><clipPath id="36af86ac79"><path d="M 188.644531 25.003906 L 305.351562 92.328125 C 307.714844 90.679688 310.601562 89.730469 313.695312 89.730469 C 315.664062 89.730469 317.574219 90.125 319.304688 90.855469 C 321.113281 91.597656 322.722656 92.683594 324.074219 94.035156 C 325.410156 95.371094 326.5 96.992188 327.257812 98.796875 C 327.972656 100.539062 328.382812 102.433594 328.382812 104.402344 C 328.382812 106.367188 327.988281 108.273438 327.257812 110.003906 C 326.511719 111.8125 325.421875 113.417969 324.074219 114.765625 C 323.082031 115.757812 321.945312 116.609375 320.695312 117.289062 L 320.679688 117.277344 C 320.457031 117.402344 320.222656 117.511719 320 117.625 L 320 252.195312 C 320.78125 252.527344 321.574219 252.925781 322.351562 253.382812 C 324.953125 254.878906 327.144531 256.847656 328.878906 259.097656 C 330.675781 261.4375 331.972656 264.082031 332.71875 266.878906 C 335.875 278.632812 328.855469 290.953125 316.964844 294.121094 C 314.179688 294.863281 311.234375 295.070312 308.296875 294.675781 C 305.859375 294.355469 303.433594 293.625 301.117188 292.449219 L 301.03125 292.449219 L 300.050781 291.894531 C 299.285156 291.445312 298.539062 290.953125 297.824219 290.421875 L 184.480469 355.789062 C 184.507812 356.132812 184.507812 356.46875 184.507812 356.816406 C 184.507812 359.191406 184.023438 361.464844 183.15625 363.570312 L 183.15625 363.582031 C 182.253906 365.757812 180.941406 367.699219 179.320312 369.320312 C 177.707031 370.929688 175.753906 372.242188 173.574219 373.144531 C 171.46875 374.011719 169.191406 374.492188 166.800781 374.492188 C 164.421875 374.492188 162.132812 374.011719 160.027344 373.144531 C 157.835938 372.242188 155.890625 370.929688 154.28125 369.320312 C 152.671875 367.714844 151.359375 365.757812 150.453125 363.582031 C 149.585938 361.492188 149.105469 359.203125 149.105469 356.816406 C 149.105469 356.542969 149.117188 356.269531 149.128906 355.984375 L 35.765625 290.59375 C 35.007812 291.164062 34.214844 291.695312 33.398438 292.164062 L 33.386719 292.175781 L 33.375 292.175781 L 33.363281 292.164062 C 30.75 293.660156 27.964844 294.578125 25.152344 294.949219 C 22.21875 295.332031 19.269531 295.132812 16.496094 294.390625 C 13.699219 293.648438 11.035156 292.351562 8.707031 290.554688 C 6.464844 288.835938 4.496094 286.636719 2.988281 284.011719 L 2.960938 283.960938 L 2.949219 283.976562 C 1.464844 281.390625 0.558594 278.605469 0.1875 275.785156 C -0.195312 272.855469 0.015625 269.921875 0.757812 267.152344 C 1.5 264.355469 2.800781 261.707031 4.597656 259.371094 C 6.316406 257.128906 8.523438 255.164062 11.148438 253.65625 L 12.125 253.097656 L 12.175781 253.097656 C 12.558594 252.898438 12.941406 252.714844 13.300781 252.554688 L 13.300781 117.921875 C 12.980469 117.785156 12.671875 117.648438 12.359375 117.488281 C 10.914062 116.769531 9.625 115.832031 8.546875 114.753906 C 7.210938 113.417969 6.132812 111.8125 5.378906 109.992188 C 4.660156 108.246094 4.25 106.355469 4.25 104.386719 C 4.25 102.433594 4.644531 100.539062 5.378906 98.796875 L 5.378906 98.785156 C 6.121094 96.992188 7.210938 95.371094 8.558594 94.035156 C 11.210938 91.386719 14.886719 89.742188 18.9375 89.742188 C 20.90625 89.742188 22.8125 90.136719 24.546875 90.867188 C 25.636719 91.3125 26.652344 91.894531 27.578125 92.5625 L 144.335938 25.214844 C 144.25 24.421875 144.199219 23.605469 144.199219 22.789062 C 144.199219 19.808594 144.808594 16.925781 145.898438 14.292969 L 145.898438 14.277344 C 147.867188 9.515625 150.15625 7.535156 153.910156 4.433594 C 155.171875 3.566406 156.535156 2.835938 157.957031 2.242188 C 160.597656 1.152344 163.480469 0.546875 166.476562 0.546875 C 169.460938 0.546875 172.347656 1.152344 174.984375 2.242188 L 174.996094 2.242188 C 177.734375 3.367188 180.183594 5.027344 182.230469 7.066406 C 184.273438 9.109375 185.929688 11.558594 187.058594 14.292969 L 187.058594 14.304688 C 188.148438 16.9375 188.753906 19.808594 188.753906 22.800781 C 188.753906 23.542969 188.71875 24.285156 188.644531 25.03125 Z M 9.871094 275.402344 Z M 35.097656 273.671875 C 35.851562 258.761719 14.402344 255.101562 10.167969 269.425781 C 9.921875 270.390625 9.773438 271.394531 9.722656 272.394531 C 9.675781 273.398438 9.722656 274.414062 9.871094 275.414062 C 12.65625 290.0625 34.351562 288.578125 35.097656 273.683594 Z M 154.058594 22.058594 C 154.007812 23.0625 154.058594 24.078125 154.207031 25.078125 C 154.8125 28.234375 156.535156 30.917969 158.925781 32.761719 C 161.3125 34.605469 164.359375 35.605469 167.578125 35.394531 C 170.800781 35.171875 173.683594 33.777344 175.800781 31.621094 C 177.917969 29.46875 179.28125 26.5625 179.441406 23.347656 C 179.601562 20.128906 178.550781 17.101562 176.65625 14.75 C 174.761719 12.386719 172.039062 10.703125 168.867188 10.160156 C 165.683594 9.617188 162.550781 10.308594 159.988281 11.902344 C 157.425781 13.5 155.433594 16.011719 154.515625 19.089844 C 154.269531 20.054688 154.121094 21.058594 154.070312 22.058594 Z M 298.601562 272.0625 C 298.554688 273.0625 298.601562 274.078125 298.75 275.082031 C 299.359375 278.234375 301.078125 280.917969 303.46875 282.761719 C 305.859375 284.605469 308.90625 285.609375 312.125 285.398438 C 315.34375 285.175781 318.230469 283.777344 320.347656 281.625 C 322.464844 279.472656 323.828125 276.566406 323.988281 273.347656 C 324.148438 270.132812 323.09375 267.101562 321.199219 264.75 C 319.304688 262.386719 316.582031 260.707031 313.414062 260.160156 C 310.230469 259.617188 307.097656 260.308594 304.535156 261.90625 C 301.96875 263.5 299.976562 266.011719 299.0625 269.09375 C 298.8125 270.058594 298.664062 271.058594 298.613281 272.0625 Z M 33.261719 101.234375 C 33.484375 102.261719 33.609375 103.3125 33.609375 104.386719 C 33.609375 106.355469 33.214844 108.261719 32.484375 109.992188 C 31.738281 111.796875 30.652344 113.40625 29.300781 114.753906 C 28.0625 115.992188 26.601562 117.007812 24.964844 117.75 C 24.558594 117.933594 24.148438 118.09375 23.714844 118.242188 L 23.714844 250.722656 C 24.558594 250.773438 25.375 250.882812 26.191406 251.019531 L 149.660156 37.375 C 149.03125 36.65625 148.449219 35.890625 147.929688 35.113281 L 33.25 101.257812 Z M 147.480469 191.390625 L 147.816406 191.566406 L 147.828125 191.566406 C 148.558594 191.949219 149.253906 192.394531 149.898438 192.890625 L 225.433594 149.320312 C 225.257812 148.429688 225.171875 147.523438 225.171875 146.632812 C 225.171875 144.679688 225.570312 142.789062 226.300781 141.042969 L 226.300781 141.03125 C 226.96875 139.410156 227.910156 137.949219 229.074219 136.699219 L 175.097656 43.300781 C 174.414062 43.585938 173.722656 43.84375 173.015625 44.054688 L 173.003906 44.054688 C 171.429688 44.539062 169.808594 44.847656 168.148438 44.984375 L 147.496094 191.40625 Z M 155.359375 201.695312 C 155.542969 202.625 155.628906 203.566406 155.628906 204.515625 L 155.628906 204.886719 L 292.769531 260.175781 C 293.699219 258.789062 294.75 257.550781 295.902344 256.460938 C 296.421875 255.980469 296.957031 255.511719 297.511719 255.078125 L 243.101562 160.921875 C 242.0625 161.15625 240.972656 161.28125 239.871094 161.28125 C 237.902344 161.28125 235.996094 160.886719 234.261719 160.15625 C 233.011719 159.636719 231.859375 158.96875 230.832031 158.164062 L 155.382812 201.683594 Z M 151.703125 214.488281 C 151.582031 214.625 151.457031 214.761719 151.332031 214.882812 C 148.683594 217.53125 145.003906 219.175781 140.957031 219.175781 C 138.988281 219.175781 137.082031 218.78125 135.347656 218.050781 C 133.847656 217.433594 132.488281 216.589844 131.308594 215.566406 L 43.503906 266.210938 C 43.691406 266.792969 43.851562 267.375 43.988281 267.96875 L 43.988281 267.980469 C 44.097656 268.476562 44.195312 268.957031 44.273438 269.453125 L 288.015625 269.453125 L 151.703125 214.5 Z M 126.40625 206.433594 C 126.320312 205.792969 126.269531 205.148438 126.269531 204.515625 C 126.269531 202.5625 126.667969 200.671875 127.398438 198.925781 L 127.398438 198.914062 C 128.140625 197.121094 129.230469 195.5 130.578125 194.164062 C 131.890625 192.851562 133.464844 191.789062 135.222656 191.046875 C 135.84375 190.785156 136.472656 190.5625 137.128906 190.390625 L 157.773438 44.03125 L 35.738281 255.199219 C 36.097656 255.472656 36.433594 255.746094 36.78125 256.042969 C 37.261719 256.449219 37.722656 256.894531 38.179688 257.351562 L 126.417969 206.460938 Z M 239.847656 131.976562 C 241.816406 131.976562 243.722656 132.371094 245.457031 133.101562 C 247.261719 133.84375 248.871094 134.933594 250.222656 136.28125 C 251.558594 137.617188 252.648438 139.238281 253.40625 141.042969 C 254.125 142.789062 254.53125 144.679688 254.53125 146.648438 C 254.53125 148.613281 254.136719 150.519531 253.40625 152.25 C 252.960938 153.316406 252.402344 154.304688 251.746094 155.21875 L 306.972656 250.785156 C 307.828125 250.625 308.695312 250.5 309.574219 250.4375 L 309.574219 118.453125 C 309.066406 118.304688 308.558594 118.121094 308.074219 117.921875 C 306.253906 117.167969 304.644531 116.078125 303.308594 114.753906 C 301.96875 113.417969 300.894531 111.8125 300.136719 109.992188 C 299.417969 108.246094 299.011719 106.355469 299.011719 104.386719 C 299.011719 103.199219 299.160156 102.023438 299.445312 100.886719 L 185.113281 34.9375 L 183.542969 37.191406 L 238.359375 132.050781 C 238.855469 132 239.351562 131.976562 239.847656 131.976562 Z M 43.429688 279.84375 C 43.144531 280.710938 42.796875 281.574219 42.390625 282.429688 L 152.609375 346.003906 L 154.316406 344.296875 C 157.523438 341.089844 161.945312 339.113281 166.835938 339.113281 C 169.203125 339.113281 171.492188 339.59375 173.597656 340.460938 L 173.609375 340.460938 C 175.789062 341.363281 177.734375 342.675781 179.355469 344.296875 C 179.863281 344.800781 180.359375 345.359375 180.804688 345.941406 L 291.160156 282.292969 C 290.777344 281.488281 290.429688 280.671875 290.144531 279.84375 Z M 43.429688 279.84375 " clip-rule="nonzero"/></clipPath><linearGradient x1="15.768128" gradientTransform="matrix(1.238283, 0, 0, 1.237082, 0.0153191, 0.522713)" y1="314.83677" x2="267.204131" gradientUnits="userSpaceOnUse" y2="-1.654891" id="7f9205d368"><stop stop-opacity="1" stop-color="rgb(74.023438%, 1.513672%, 80.296326%)" offset="0"/><stop stop-opacity="1" stop-color="rgb(73.553467%, 1.939392%, 80.380249%)" offset="0.00390625"/><stop stop-opacity="1" stop-color="rgb(73.083496%, 2.365112%, 80.464172%)" offset="0.0078125"/><stop stop-opacity="1" stop-color="rgb(72.613525%, 2.790833%, 80.548096%)" offset="0.0117188"/><stop stop-opacity="1" stop-color="rgb(72.143555%, 3.216553%, 80.632019%)" offset="0.015625"/><stop stop-opacity="1" stop-color="rgb(71.672058%, 3.640747%, 80.714417%)" offset="0.0195312"/><stop stop-opacity="1" stop-color="rgb(71.202087%, 4.066467%, 80.79834%)" offset="0.0234375"/><stop stop-opacity="1" stop-color="rgb(70.732117%, 4.492188%, 80.882263%)" offset="0.0273438"/><stop stop-opacity="1" stop-color="rgb(70.262146%, 4.917908%, 80.966187%)" offset="0.03125"/><stop stop-opacity="1" stop-color="rgb(69.790649%, 5.342102%, 81.048584%)" offset="0.0351562"/><stop stop-opacity="1" stop-color="rgb(69.320679%, 5.767822%, 81.132507%)" offset="0.0390625"/><stop stop-opacity="1" stop-color="rgb(68.850708%, 6.193542%, 81.216431%)" offset="0.0429687"/><stop stop-opacity="1" stop-color="rgb(68.380737%, 6.619263%, 81.300354%)" offset="0.046875"/><stop stop-opacity="1" stop-color="rgb(67.909241%, 7.044983%, 81.382751%)" offset="0.0507812"/><stop stop-opacity="1" stop-color="rgb(67.43927%, 7.470703%, 81.466675%)" offset="0.0546875"/><stop stop-opacity="1" stop-color="rgb(66.969299%, 7.894897%, 81.550598%)" offset="0.0585937"/><stop stop-opacity="1" stop-color="rgb(66.499329%, 8.320618%, 81.634521%)" offset="0.0625"/><stop stop-opacity="1" stop-color="rgb(66.027832%, 8.746338%, 81.716919%)" offset="0.0664062"/><stop stop-opacity="1" stop-color="rgb(65.557861%, 9.172058%, 81.800842%)" offset="0.0703125"/><stop stop-opacity="1" stop-color="rgb(65.087891%, 9.596252%, 81.884766%)" offset="0.0742188"/><stop stop-opacity="1" stop-color="rgb(64.61792%, 10.021973%, 81.968689%)" offset="0.078125"/><stop stop-opacity="1" stop-color="rgb(64.146423%, 10.447693%, 82.052612%)" offset="0.0820312"/><stop stop-opacity="1" stop-color="rgb(63.676453%, 10.873413%, 82.136536%)" offset="0.0859375"/><stop stop-opacity="1" stop-color="rgb(63.206482%, 11.299133%, 82.218933%)" offset="0.0898438"/><stop stop-opacity="1" stop-color="rgb(62.736511%, 11.724854%, 82.302856%)" offset="0.09375"/><stop stop-opacity="1" stop-color="rgb(62.265015%, 12.149048%, 82.38678%)" offset="0.0976562"/><stop stop-opacity="1" stop-color="rgb(61.795044%, 12.574768%, 82.470703%)" offset="0.101562"/><stop stop-opacity="1" stop-color="rgb(61.325073%, 13.000488%, 82.553101%)" offset="0.105469"/><stop stop-opacity="1" stop-color="rgb(60.855103%, 13.426208%, 82.637024%)" offset="0.109375"/><stop stop-opacity="1" stop-color="rgb(60.383606%, 13.850403%, 82.720947%)" offset="0.113281"/><stop stop-opacity="1" stop-color="rgb(59.913635%, 14.276123%, 82.804871%)" offset="0.117188"/><stop stop-opacity="1" stop-color="rgb(59.443665%, 14.701843%, 82.887268%)" offset="0.121094"/><stop stop-opacity="1" stop-color="rgb(58.973694%, 15.127563%, 82.971191%)" offset="0.125"/><stop stop-opacity="1" stop-color="rgb(58.503723%, 15.553284%, 83.055115%)" offset="0.128906"/><stop stop-opacity="1" stop-color="rgb(58.033752%, 15.979004%, 83.139038%)" offset="0.132813"/><stop stop-opacity="1" stop-color="rgb(57.562256%, 16.403198%, 83.221436%)" offset="0.136719"/><stop stop-opacity="1" stop-color="rgb(57.092285%, 16.828918%, 83.305359%)" offset="0.140625"/><stop stop-opacity="1" stop-color="rgb(56.622314%, 17.254639%, 83.389282%)" offset="0.144531"/><stop stop-opacity="1" stop-color="rgb(56.152344%, 17.680359%, 83.473206%)" offset="0.148438"/><stop stop-opacity="1" stop-color="rgb(55.680847%, 18.104553%, 83.557129%)" offset="0.152344"/><stop stop-opacity="1" stop-color="rgb(55.210876%, 18.530273%, 83.641052%)" offset="0.15625"/><stop stop-opacity="1" stop-color="rgb(54.740906%, 18.955994%, 83.72345%)" offset="0.160156"/><stop stop-opacity="1" stop-color="rgb(54.270935%, 19.381714%, 83.807373%)" offset="0.164063"/><stop stop-opacity="1" stop-color="rgb(53.799438%, 19.807434%, 83.891296%)" offset="0.167969"/><stop stop-opacity="1" stop-color="rgb(53.329468%, 20.233154%, 83.97522%)" offset="0.171875"/><stop stop-opacity="1" stop-color="rgb(52.859497%, 20.657349%, 84.057617%)" offset="0.175781"/><stop stop-opacity="1" stop-color="rgb(52.389526%, 21.083069%, 84.141541%)" offset="0.179688"/><stop stop-opacity="1" stop-color="rgb(51.91803%, 21.508789%, 84.225464%)" offset="0.183594"/><stop stop-opacity="1" stop-color="rgb(51.448059%, 21.934509%, 84.309387%)" offset="0.1875"/><stop stop-opacity="1" stop-color="rgb(50.978088%, 22.358704%, 84.391785%)" offset="0.191406"/><stop stop-opacity="1" stop-color="rgb(50.508118%, 22.784424%, 84.475708%)" offset="0.195312"/><stop stop-opacity="1" stop-color="rgb(50.036621%, 23.210144%, 84.559631%)" offset="0.199219"/><stop stop-opacity="1" stop-color="rgb(49.56665%, 23.635864%, 84.643555%)" offset="0.203125"/><stop stop-opacity="1" stop-color="rgb(49.09668%, 24.061584%, 84.725952%)" offset="0.207031"/><stop stop-opacity="1" stop-color="rgb(48.626709%, 24.487305%, 84.809875%)" offset="0.210938"/><stop stop-opacity="1" stop-color="rgb(48.155212%, 24.911499%, 84.893799%)" offset="0.214844"/><stop stop-opacity="1" stop-color="rgb(47.685242%, 25.337219%, 84.977722%)" offset="0.21875"/><stop stop-opacity="1" stop-color="rgb(47.215271%, 25.762939%, 85.061646%)" offset="0.222656"/><stop stop-opacity="1" stop-color="rgb(46.7453%, 26.18866%, 85.145569%)" offset="0.226563"/><stop stop-opacity="1" stop-color="rgb(46.27533%, 26.612854%, 85.227966%)" offset="0.230469"/><stop stop-opacity="1" stop-color="rgb(45.805359%, 27.038574%, 85.31189%)" offset="0.234375"/><stop stop-opacity="1" stop-color="rgb(45.333862%, 27.464294%, 85.395813%)" offset="0.238281"/><stop stop-opacity="1" stop-color="rgb(44.863892%, 27.890015%, 85.479736%)" offset="0.242188"/><stop stop-opacity="1" stop-color="rgb(44.393921%, 28.315735%, 85.562134%)" offset="0.246094"/><stop stop-opacity="1" stop-color="rgb(43.92395%, 28.741455%, 85.646057%)" offset="0.25"/><stop stop-opacity="1" stop-color="rgb(43.452454%, 29.165649%, 85.72998%)" offset="0.253906"/><stop stop-opacity="1" stop-color="rgb(42.982483%, 29.59137%, 85.813904%)" offset="0.257813"/><stop stop-opacity="1" stop-color="rgb(42.512512%, 30.01709%, 85.896301%)" offset="0.261719"/><stop stop-opacity="1" stop-color="rgb(42.042542%, 30.44281%, 85.980225%)" offset="0.265625"/><stop stop-opacity="1" stop-color="rgb(41.571045%, 30.867004%, 86.064148%)" offset="0.269531"/><stop stop-opacity="1" stop-color="rgb(41.101074%, 31.292725%, 86.148071%)" offset="0.273438"/><stop stop-opacity="1" stop-color="rgb(40.631104%, 31.718445%, 86.230469%)" offset="0.277344"/><stop stop-opacity="1" stop-color="rgb(40.161133%, 32.144165%, 86.314392%)" offset="0.28125"/><stop stop-opacity="1" stop-color="rgb(39.689636%, 32.569885%, 86.398315%)" offset="0.285156"/><stop stop-opacity="1" stop-color="rgb(39.219666%, 32.995605%, 86.482239%)" offset="0.289063"/><stop stop-opacity="1" stop-color="rgb(38.749695%, 33.4198%, 86.566162%)" offset="0.292969"/><stop stop-opacity="1" stop-color="rgb(38.279724%, 33.84552%, 86.650085%)" offset="0.296875"/><stop stop-opacity="1" stop-color="rgb(37.857056%, 34.22699%, 86.726379%)" offset="0.300781"/><stop stop-opacity="1" stop-color="rgb(37.435913%, 34.609985%, 86.802673%)" offset="0.304688"/><stop stop-opacity="1" stop-color="rgb(37.034607%, 34.97467%, 86.875916%)" offset="0.308594"/><stop stop-opacity="1" stop-color="rgb(36.633301%, 35.339355%, 86.950684%)" offset="0.3125"/><stop stop-opacity="1" stop-color="rgb(36.231995%, 35.702515%, 87.023926%)" offset="0.316406"/><stop stop-opacity="1" stop-color="rgb(35.832214%, 36.0672%, 87.098694%)" offset="0.320312"/><stop stop-opacity="1" stop-color="rgb(35.430908%, 36.430359%, 87.171936%)" offset="0.324219"/><stop stop-opacity="1" stop-color="rgb(35.029602%, 36.795044%, 87.246704%)" offset="0.328125"/><stop stop-opacity="1" stop-color="rgb(34.628296%, 37.158203%, 87.319946%)" offset="0.332031"/><stop stop-opacity="1" stop-color="rgb(34.228516%, 37.522888%, 87.394714%)" offset="0.335937"/><stop stop-opacity="1" stop-color="rgb(33.827209%, 37.886047%, 87.467957%)" offset="0.339844"/><stop stop-opacity="1" stop-color="rgb(33.425903%, 38.250732%, 87.541199%)" offset="0.34375"/><stop stop-opacity="1" stop-color="rgb(33.024597%, 38.615417%, 87.614441%)" offset="0.347656"/><stop stop-opacity="1" stop-color="rgb(32.623291%, 38.980103%, 87.689209%)" offset="0.351562"/><stop stop-opacity="1" stop-color="rgb(32.221985%, 39.343262%, 87.762451%)" offset="0.355469"/><stop stop-opacity="1" stop-color="rgb(31.822205%, 39.707947%, 87.837219%)" offset="0.359375"/><stop stop-opacity="1" stop-color="rgb(31.420898%, 40.071106%, 87.910461%)" offset="0.363281"/><stop stop-opacity="1" stop-color="rgb(31.019592%, 40.435791%, 87.985229%)" offset="0.367188"/><stop stop-opacity="1" stop-color="rgb(30.618286%, 40.79895%, 88.058472%)" offset="0.371094"/><stop stop-opacity="1" stop-color="rgb(30.21698%, 41.163635%, 88.13324%)" offset="0.375"/><stop stop-opacity="1" stop-color="rgb(29.815674%, 41.52832%, 88.206482%)" offset="0.378906"/><stop stop-opacity="1" stop-color="rgb(29.415894%, 41.893005%, 88.279724%)" offset="0.382812"/><stop stop-opacity="1" stop-color="rgb(29.014587%, 42.256165%, 88.352966%)" offset="0.386719"/><stop stop-opacity="1" stop-color="rgb(28.613281%, 42.62085%, 88.427734%)" offset="0.390625"/><stop stop-opacity="1" stop-color="rgb(28.211975%, 42.984009%, 88.500977%)" offset="0.394531"/><stop stop-opacity="1" stop-color="rgb(27.810669%, 43.348694%, 88.575745%)" offset="0.398438"/><stop stop-opacity="1" stop-color="rgb(27.409363%, 43.711853%, 88.648987%)" offset="0.402344"/><stop stop-opacity="1" stop-color="rgb(27.009583%, 44.076538%, 88.723755%)" offset="0.40625"/><stop stop-opacity="1" stop-color="rgb(26.608276%, 44.439697%, 88.796997%)" offset="0.410156"/><stop stop-opacity="1" stop-color="rgb(26.20697%, 44.804382%, 88.871765%)" offset="0.414062"/><stop stop-opacity="1" stop-color="rgb(25.805664%, 45.169067%, 88.945007%)" offset="0.417969"/><stop stop-opacity="1" stop-color="rgb(25.405884%, 45.533752%, 89.019775%)" offset="0.421875"/><stop stop-opacity="1" stop-color="rgb(25.004578%, 45.896912%, 89.093018%)" offset="0.425781"/><stop stop-opacity="1" stop-color="rgb(24.603271%, 46.261597%, 89.16626%)" offset="0.429688"/><stop stop-opacity="1" stop-color="rgb(24.201965%, 46.624756%, 89.239502%)" offset="0.433594"/><stop stop-opacity="1" stop-color="rgb(23.800659%, 46.989441%, 89.31427%)" offset="0.4375"/><stop stop-opacity="1" stop-color="rgb(23.399353%, 47.3526%, 89.387512%)" offset="0.441406"/><stop stop-opacity="1" stop-color="rgb(22.999573%, 47.717285%, 89.46228%)" offset="0.445312"/><stop stop-opacity="1" stop-color="rgb(22.598267%, 48.08197%, 89.535522%)" offset="0.449219"/><stop stop-opacity="1" stop-color="rgb(22.19696%, 48.446655%, 89.610291%)" offset="0.453125"/><stop stop-opacity="1" stop-color="rgb(21.795654%, 48.809814%, 89.683533%)" offset="0.457031"/><stop stop-opacity="1" stop-color="rgb(21.394348%, 49.1745%, 89.758301%)" offset="0.460938"/><stop stop-opacity="1" stop-color="rgb(20.993042%, 49.537659%, 89.831543%)" offset="0.464844"/><stop stop-opacity="1" stop-color="rgb(20.593262%, 49.902344%, 89.906311%)" offset="0.46875"/><stop stop-opacity="1" stop-color="rgb(20.191956%, 50.265503%, 89.979553%)" offset="0.472656"/><stop stop-opacity="1" stop-color="rgb(19.790649%, 50.630188%, 90.052795%)" offset="0.476563"/><stop stop-opacity="1" stop-color="rgb(19.389343%, 50.994873%, 90.126038%)" offset="0.480469"/><stop stop-opacity="1" stop-color="rgb(18.988037%, 51.359558%, 90.200806%)" offset="0.484375"/><stop stop-opacity="1" stop-color="rgb(18.586731%, 51.722717%, 90.274048%)" offset="0.488281"/><stop stop-opacity="1" stop-color="rgb(18.186951%, 52.087402%, 90.348816%)" offset="0.492188"/><stop stop-opacity="1" stop-color="rgb(17.785645%, 52.450562%, 90.422058%)" offset="0.496094"/><stop stop-opacity="1" stop-color="rgb(17.384338%, 52.815247%, 90.496826%)" offset="0.5"/><stop stop-opacity="1" stop-color="rgb(16.983032%, 53.178406%, 90.570068%)" offset="0.503906"/><stop stop-opacity="1" stop-color="rgb(16.581726%, 53.543091%, 90.644836%)" offset="0.507812"/><stop stop-opacity="1" stop-color="rgb(16.18042%, 53.90625%, 90.718079%)" offset="0.511719"/><stop stop-opacity="1" stop-color="rgb(15.78064%, 54.270935%, 90.792847%)" offset="0.515625"/><stop stop-opacity="1" stop-color="rgb(15.379333%, 54.63562%, 90.866089%)" offset="0.519531"/><stop stop-opacity="1" stop-color="rgb(14.978027%, 55.000305%, 90.939331%)" offset="0.523437"/><stop stop-opacity="1" stop-color="rgb(14.576721%, 55.363464%, 91.012573%)" offset="0.527344"/><stop stop-opacity="1" stop-color="rgb(14.176941%, 55.728149%, 91.087341%)" offset="0.53125"/><stop stop-opacity="1" stop-color="rgb(13.775635%, 56.091309%, 91.160583%)" offset="0.535156"/><stop stop-opacity="1" stop-color="rgb(13.374329%, 56.455994%, 91.235352%)" offset="0.539062"/><stop stop-opacity="1" stop-color="rgb(12.973022%, 56.819153%, 91.308594%)" offset="0.542969"/><stop stop-opacity="1" stop-color="rgb(12.571716%, 57.183838%, 91.383362%)" offset="0.546875"/><stop stop-opacity="1" stop-color="rgb(12.17041%, 57.548523%, 91.456604%)" offset="0.550781"/><stop stop-opacity="1" stop-color="rgb(11.77063%, 57.913208%, 91.531372%)" offset="0.554687"/><stop stop-opacity="1" stop-color="rgb(11.369324%, 58.276367%, 91.604614%)" offset="0.558594"/><stop stop-opacity="1" stop-color="rgb(10.968018%, 58.641052%, 91.679382%)" offset="0.5625"/><stop stop-opacity="1" stop-color="rgb(10.566711%, 59.004211%, 91.752625%)" offset="0.566406"/><stop stop-opacity="1" stop-color="rgb(10.165405%, 59.368896%, 91.825867%)" offset="0.570312"/><stop stop-opacity="1" stop-color="rgb(9.764099%, 59.732056%, 91.899109%)" offset="0.574219"/><stop stop-opacity="1" stop-color="rgb(9.364319%, 60.096741%, 91.973877%)" offset="0.578125"/><stop stop-opacity="1" stop-color="rgb(8.963013%, 60.4599%, 92.047119%)" offset="0.582031"/><stop stop-opacity="1" stop-color="rgb(8.561707%, 60.824585%, 92.121887%)" offset="0.585937"/><stop stop-opacity="1" stop-color="rgb(8.1604%, 61.18927%, 92.195129%)" offset="0.589844"/><stop stop-opacity="1" stop-color="rgb(7.759094%, 61.553955%, 92.269897%)" offset="0.59375"/><stop stop-opacity="1" stop-color="rgb(7.357788%, 61.917114%, 92.34314%)" offset="0.597656"/><stop stop-opacity="1" stop-color="rgb(6.958008%, 62.281799%, 92.417908%)" offset="0.601563"/><stop stop-opacity="1" stop-color="rgb(6.556702%, 62.644958%, 92.49115%)" offset="0.605469"/><stop stop-opacity="1" stop-color="rgb(6.155396%, 63.009644%, 92.565918%)" offset="0.609375"/><stop stop-opacity="1" stop-color="rgb(5.754089%, 63.372803%, 92.63916%)" offset="0.613281"/><stop stop-opacity="1" stop-color="rgb(5.354309%, 63.737488%, 92.712402%)" offset="0.617188"/><stop stop-opacity="1" stop-color="rgb(4.953003%, 64.102173%, 92.785645%)" offset="0.621094"/><stop stop-opacity="1" stop-color="rgb(4.551697%, 64.466858%, 92.860413%)" offset="0.625"/><stop stop-opacity="1" stop-color="rgb(4.150391%, 64.830017%, 92.933655%)" offset="0.628906"/><stop stop-opacity="1" stop-color="rgb(3.749084%, 65.194702%, 93.008423%)" offset="0.632813"/><stop stop-opacity="1" stop-color="rgb(3.347778%, 65.557861%, 93.081665%)" offset="0.636719"/><stop stop-opacity="1" stop-color="rgb(2.947998%, 65.922546%, 93.156433%)" offset="0.640625"/><stop stop-opacity="1" stop-color="rgb(2.546692%, 66.285706%, 93.229675%)" offset="0.644531"/><stop stop-opacity="1" stop-color="rgb(2.145386%, 66.650391%, 93.304443%)" offset="0.648438"/><stop stop-opacity="1" stop-color="rgb(1.74408%, 67.01355%, 93.377686%)" offset="0.652344"/><stop stop-opacity="1" stop-color="rgb(1.342773%, 67.378235%, 93.450928%)" offset="0.65625"/><stop stop-opacity="1" stop-color="rgb(0.941467%, 67.74292%, 93.52417%)" offset="0.660156"/><stop stop-opacity="1" stop-color="rgb(0.541687%, 68.107605%, 93.598938%)" offset="0.664062"/><stop stop-opacity="1" stop-color="rgb(0.270081%, 68.466187%, 93.670654%)" offset="0.667969"/><stop stop-opacity="1" stop-color="rgb(0%, 68.824768%, 93.743896%)" offset="0.671875"/><stop stop-opacity="1" stop-color="rgb(0%, 69.171143%, 93.814087%)" offset="0.675781"/><stop stop-opacity="1" stop-color="rgb(0%, 69.517517%, 93.884277%)" offset="0.679688"/><stop stop-opacity="1" stop-color="rgb(0%, 69.863892%, 93.952942%)" offset="0.683594"/><stop stop-opacity="1" stop-color="rgb(0%, 70.211792%, 94.023132%)" offset="0.6875"/><stop stop-opacity="1" stop-color="rgb(0%, 70.558167%, 94.091797%)" offset="0.691406"/><stop stop-opacity="1" stop-color="rgb(0%, 70.906067%, 94.161987%)" offset="0.695312"/><stop stop-opacity="1" stop-color="rgb(0%, 71.252441%, 94.230652%)" offset="0.699219"/><stop stop-opacity="1" stop-color="rgb(0%, 71.600342%, 94.300842%)" offset="0.703125"/><stop stop-opacity="1" stop-color="rgb(0%, 71.946716%, 94.369507%)" offset="0.707031"/><stop stop-opacity="1" stop-color="rgb(0%, 72.293091%, 94.439697%)" offset="0.710938"/><stop stop-opacity="1" stop-color="rgb(0%, 72.639465%, 94.509888%)" offset="0.714844"/><stop stop-opacity="1" stop-color="rgb(0%, 72.987366%, 94.580078%)" offset="0.71875"/><stop stop-opacity="1" stop-color="rgb(0%, 73.33374%, 94.648743%)" offset="0.722656"/><stop stop-opacity="1" stop-color="rgb(0%, 73.681641%, 94.718933%)" offset="0.726562"/><stop stop-opacity="1" stop-color="rgb(0%, 74.028015%, 94.787598%)" offset="0.730469"/><stop stop-opacity="1" stop-color="rgb(0%, 74.37439%, 94.857788%)" offset="0.734375"/><stop stop-opacity="1" stop-color="rgb(0%, 74.720764%, 94.926453%)" offset="0.738281"/><stop stop-opacity="1" stop-color="rgb(0%, 75.068665%, 94.996643%)" offset="0.742188"/><stop stop-opacity="1" stop-color="rgb(0%, 75.415039%, 95.066833%)" offset="0.746094"/><stop stop-opacity="1" stop-color="rgb(0%, 75.762939%, 95.137024%)" offset="0.75"/><stop stop-opacity="1" stop-color="rgb(0%, 76.109314%, 95.205688%)" offset="0.753906"/><stop stop-opacity="1" stop-color="rgb(0%, 76.457214%, 95.275879%)" offset="0.757812"/><stop stop-opacity="1" stop-color="rgb(0%, 76.803589%, 95.344543%)" offset="0.761719"/><stop stop-opacity="1" stop-color="rgb(0%, 77.149963%, 95.414734%)" offset="0.765625"/><stop stop-opacity="1" stop-color="rgb(0%, 77.496338%, 95.483398%)" offset="0.769531"/><stop stop-opacity="1" stop-color="rgb(0%, 77.844238%, 95.553589%)" offset="0.773438"/><stop stop-opacity="1" stop-color="rgb(0%, 78.190613%, 95.623779%)" offset="0.777344"/><stop stop-opacity="1" stop-color="rgb(0%, 78.538513%, 95.69397%)" offset="0.78125"/><stop stop-opacity="1" stop-color="rgb(0%, 78.884888%, 95.762634%)" offset="0.785156"/><stop stop-opacity="1" stop-color="rgb(0%, 79.232788%, 95.832825%)" offset="0.789062"/><stop stop-opacity="1" stop-color="rgb(0%, 79.579163%, 95.901489%)" offset="0.792969"/><stop stop-opacity="1" stop-color="rgb(0%, 79.925537%, 95.97168%)" offset="0.796875"/><stop stop-opacity="1" stop-color="rgb(0%, 80.271912%, 96.040344%)" offset="0.800781"/><stop stop-opacity="1" stop-color="rgb(0%, 80.619812%, 96.110535%)" offset="0.804688"/><stop stop-opacity="1" stop-color="rgb(0%, 80.966187%, 96.180725%)" offset="0.808594"/><stop stop-opacity="1" stop-color="rgb(0%, 81.314087%, 96.250916%)" offset="0.8125"/><stop stop-opacity="1" stop-color="rgb(0%, 81.660461%, 96.31958%)" offset="0.816406"/><stop stop-opacity="1" stop-color="rgb(0%, 82.006836%, 96.389771%)" offset="0.820312"/><stop stop-opacity="1" stop-color="rgb(0%, 82.35321%, 96.458435%)" offset="0.824219"/><stop stop-opacity="1" stop-color="rgb(0%, 82.701111%, 96.528625%)" offset="0.828125"/><stop stop-opacity="1" stop-color="rgb(0%, 83.047485%, 96.59729%)" offset="0.832031"/><stop stop-opacity="1" stop-color="rgb(0%, 83.395386%, 96.66748%)" offset="0.835938"/><stop stop-opacity="1" stop-color="rgb(0%, 83.74176%, 96.736145%)" offset="0.839844"/><stop stop-opacity="1" stop-color="rgb(0%, 84.089661%, 96.806335%)" offset="0.84375"/><stop stop-opacity="1" stop-color="rgb(0%, 84.436035%, 96.876526%)" offset="0.847656"/><stop stop-opacity="1" stop-color="rgb(0%, 84.78241%, 96.946716%)" offset="0.851562"/><stop stop-opacity="1" stop-color="rgb(0%, 85.128784%, 97.015381%)" offset="0.855469"/><stop stop-opacity="1" stop-color="rgb(0%, 85.476685%, 97.085571%)" offset="0.859375"/><stop stop-opacity="1" stop-color="rgb(0%, 85.823059%, 97.154236%)" offset="0.863281"/><stop stop-opacity="1" stop-color="rgb(0%, 86.170959%, 97.224426%)" offset="0.867188"/><stop stop-opacity="1" stop-color="rgb(0%, 86.517334%, 97.293091%)" offset="0.871094"/><stop stop-opacity="1" stop-color="rgb(0%, 86.863708%, 97.363281%)" offset="0.875"/><stop stop-opacity="1" stop-color="rgb(0%, 87.210083%, 97.433472%)" offset="0.878906"/><stop stop-opacity="1" stop-color="rgb(0%, 87.557983%, 97.503662%)" offset="0.882812"/><stop stop-opacity="1" stop-color="rgb(0%, 87.904358%, 97.572327%)" offset="0.886719"/><stop stop-opacity="1" stop-color="rgb(0%, 88.252258%, 97.642517%)" offset="0.890625"/><stop stop-opacity="1" stop-color="rgb(0%, 88.598633%, 97.711182%)" offset="0.894531"/><stop stop-opacity="1" stop-color="rgb(0%, 88.946533%, 97.781372%)" offset="0.898438"/><stop stop-opacity="1" stop-color="rgb(0%, 89.292908%, 97.850037%)" offset="0.902344"/><stop stop-opacity="1" stop-color="rgb(0%, 89.639282%, 97.920227%)" offset="0.90625"/><stop stop-opacity="1" stop-color="rgb(0%, 89.985657%, 97.990417%)" offset="0.910156"/><stop stop-opacity="1" stop-color="rgb(0%, 90.333557%, 98.060608%)" offset="0.914062"/><stop stop-opacity="1" stop-color="rgb(0%, 90.679932%, 98.129272%)" offset="0.917969"/><stop stop-opacity="1" stop-color="rgb(0%, 91.027832%, 98.199463%)" offset="0.921875"/><stop stop-opacity="1" stop-color="rgb(0%, 91.374207%, 98.268127%)" offset="0.925781"/><stop stop-opacity="1" stop-color="rgb(0%, 91.722107%, 98.338318%)" offset="0.929688"/><stop stop-opacity="1" stop-color="rgb(0%, 92.068481%, 98.406982%)" offset="0.933594"/><stop stop-opacity="1" stop-color="rgb(0%, 92.414856%, 98.477173%)" offset="0.9375"/><stop stop-opacity="1" stop-color="rgb(0%, 92.76123%, 98.547363%)" offset="0.941406"/><stop stop-opacity="1" stop-color="rgb(0%, 93.109131%, 98.617554%)" offset="0.945312"/><stop stop-opacity="1" stop-color="rgb(0%, 93.455505%, 98.686218%)" offset="0.949219"/><stop stop-opacity="1" stop-color="rgb(0%, 93.803406%, 98.756409%)" offset="0.953125"/><stop stop-opacity="1" stop-color="rgb(0%, 94.14978%, 98.825073%)" offset="0.957031"/><stop stop-opacity="1" stop-color="rgb(0%, 94.496155%, 98.895264%)" offset="0.960938"/><stop stop-opacity="1" stop-color="rgb(0%, 94.842529%, 98.963928%)" offset="0.964844"/><stop stop-opacity="1" stop-color="rgb(0%, 95.19043%, 99.034119%)" offset="0.96875"/><stop stop-opacity="1" stop-color="rgb(0%, 95.536804%, 99.102783%)" offset="0.972656"/><stop stop-opacity="1" stop-color="rgb(0%, 95.884705%, 99.172974%)" offset="0.976562"/><stop stop-opacity="1" stop-color="rgb(0%, 96.231079%, 99.243164%)" offset="0.980469"/><stop stop-opacity="1" stop-color="rgb(0%, 96.578979%, 99.313354%)" offset="0.984375"/><stop stop-opacity="1" stop-color="rgb(0%, 96.925354%, 99.382019%)" offset="0.988281"/><stop stop-opacity="1" stop-color="rgb(0%, 97.271729%, 99.452209%)" offset="0.992187"/><stop stop-opacity="1" stop-color="rgb(0%, 97.618103%, 99.520874%)" offset="0.996094"/><stop stop-opacity="1" stop-color="rgb(0%, 97.966003%, 99.591064%)" offset="1"/></linearGradient></defs><g clip-path="url(#ff559e2f83)"><g clip-path="url(#36af86ac79)"><path fill="url(#7f9205d368)" d="M 0 0.546875 L 0 374.492188 L 333.5 374.492188 L 333.5 0.546875 Z M 0 0.546875 " fill-rule="nonzero"/></g></g></svg>